<svg width="66" height="71" viewBox="0 0 66 71" fill="none" xmlns="http://www.w3.org/2000/svg">
<path d="M63.7109 39.9883C64.9414 37.9375 65.625 35.75 65.625 33.1523C65.625 27.1367 60.4297 21.5312 53.8672 21.5312H48.8086C49.4922 19.7539 50.0391 17.7031 50.0391 15.1055C50.0391 5.125 44.8438 0.75 37.0508 0.75C28.5742 0.75 29.1211 13.7383 27.207 15.6523C24.0625 18.7969 20.3711 24.8125 17.7734 27H4.375C1.91406 27 0 29.0508 0 31.375V64.1875C0 66.6484 1.91406 68.5625 4.375 68.5625H13.125C15.0391 68.5625 16.8164 67.1953 17.2266 65.418C23.3789 65.5547 27.6172 70.75 41.5625 70.75C42.6562 70.75 43.75 70.75 44.707 70.75C55.2344 70.75 59.8828 65.418 60.0195 57.7617C61.9336 55.3008 62.8906 51.8828 62.4805 48.6016C63.8477 46.1406 64.2578 43.1328 63.7109 39.9883ZM55.2344 47.3711C57.0117 50.2422 55.3711 54.0703 53.3203 55.3008C54.4141 61.8633 50.8594 64.1875 46.0742 64.1875H40.8789C31.1719 64.1875 24.7461 59.1289 17.5 59.1289V33.5625H18.8672C22.832 33.5625 28.1641 23.9922 31.8555 20.3008C35.6836 16.4727 34.4531 9.91016 37.0508 7.3125C43.4766 7.3125 43.4766 11.8242 43.4766 15.1055C43.4766 20.4375 39.6484 22.8984 39.6484 28.0938H53.8672C56.7383 28.0938 58.9258 30.6914 59.0625 33.2891C59.0625 35.75 57.2852 38.3477 55.918 38.3477C57.832 40.3984 58.2422 44.6367 55.2344 47.3711ZM12.0312 59.8125C12.0312 61.7266 10.5273 63.0938 8.75 63.0938C6.83594 63.0938 5.46875 61.7266 5.46875 59.8125C5.46875 58.0352 6.83594 56.5312 8.75 56.5312C10.5273 56.5312 12.0312 58.0352 12.0312 59.8125Z" fill="#18A0FB"/>
</svg>
