<svg width="16" height="13" viewBox="0 0 16 13" fill="none" xmlns="http://www.w3.org/2000/svg">
<path d="M6.44262 7.53176C4.95779 6.39252 4.62252 5.25327 4.54688 4.79683C4.52575 4.67062 4.58235 4.54405 4.70003 4.45439L5.90163 3.53287C6.07839 3.39734 6.10976 3.18611 5.97727 3.02354L4.0641 0.744224C3.91752 0.56421 3.61656 0.499241 3.36915 0.594204L0.297824 1.70402C0.0977519 1.77961 -0.0199279 1.94271 0.00278809 2.11293C0.163717 3.28592 0.83023 6.16944 4.52355 9.00336C8.21686 11.8373 11.9746 12.3485 13.5042 12.4719C13.726 12.4894 13.9386 12.3991 14.0371 12.2456L15.4836 9.88908C15.6069 9.69966 15.5228 9.46937 15.2892 9.3567L12.3184 7.88922C12.1066 7.78746 11.8314 7.81136 11.6546 7.94684L10.4535 8.86878C10.3366 8.95907 10.1717 9.0025 10.0072 8.98628C9.4123 8.92825 7.92746 8.67101 6.44262 7.53176Z" fill="#18A0FB"/>
<path d="M12.3388 6.91764C12.0425 6.91764 11.8023 6.73337 11.8023 6.50606C11.7998 4.80205 10 3.42115 7.77911 3.41923C7.48284 3.41923 7.24268 3.23496 7.24268 3.00765C7.24268 2.78034 7.48284 2.59607 7.77911 2.59607C10.5923 2.59845 12.8721 4.34762 12.8752 6.50606C12.8752 6.73337 12.635 6.91764 12.3388 6.91764Z" fill="#18A0FB"/>
<path d="M15.0209 6.91767C14.7246 6.91767 14.4845 6.7334 14.4845 6.50609C14.4803 3.66605 11.4807 1.36454 7.77911 1.36136C7.48284 1.36136 7.24268 1.17709 7.24268 0.949786C7.24268 0.722478 7.48284 0.538208 7.77911 0.538208C12.0729 0.541837 15.5526 3.21162 15.5573 6.50609C15.5573 6.61525 15.5008 6.71993 15.4002 6.79712C15.2996 6.87431 15.1632 6.91767 15.0209 6.91767Z" fill="#18A0FB"/>
</svg>
