<svg width="24" height="24" viewBox="0 0 24 24" fill="none" xmlns="http://www.w3.org/2000/svg">
<path fill-rule="evenodd" clip-rule="evenodd" d="M1.28711 6.58853C1.7741 5.51703 2.46255 4.58155 3.27035 3.73526C5.09767 1.82068 7.30932 0.594547 9.92776 0.176214C13.5927 -0.40894 16.8726 0.454675 19.7073 2.89538C19.8863 3.04937 19.9306 3.13984 19.7361 3.3304C18.7359 4.31015 17.751 5.30594 16.7603 6.29595C16.659 6.39732 16.5903 6.52116 16.41 6.35626C13.9148 4.06954 9.84114 4.09585 7.18934 6.56222C6.27888 7.40915 5.63149 8.42355 5.20803 9.5868C5.14643 9.54638 5.08099 9.51045 5.0226 9.46553C3.77658 8.50632 2.53249 7.54774 1.28711 6.58853Z" fill="#D7282A"/>
<path fill-rule="evenodd" clip-rule="evenodd" d="M5.17788 14.256C5.5359 15.1645 5.9799 16.0236 6.64077 16.7532C8.32052 18.6087 10.4032 19.4088 12.8978 19.1496C14.0572 19.029 15.1133 18.6363 16.1001 18.0332C16.1951 18.1179 16.2849 18.2083 16.385 18.2866C17.5399 19.1881 18.6967 20.0883 19.8523 20.9885C18.5774 22.1992 17.0722 23.0051 15.3789 23.433C11.3868 24.4423 7.70713 23.8045 4.43938 21.2259C3.08878 20.1595 2.02562 18.8429 1.27686 17.2844C2.57805 16.2751 3.87797 15.2659 5.17788 14.256Z" fill="#45AC43"/>
<path fill-rule="evenodd" clip-rule="evenodd" d="M19.8532 20.9892C18.697 20.089 17.5408 19.1888 16.3859 18.2873C16.2858 18.209 16.196 18.1186 16.101 18.0339C16.8838 17.4365 17.537 16.7301 17.9656 15.8325C18.1369 15.4745 18.2569 15.0998 18.3704 14.7212C18.4487 14.4601 18.4243 14.3587 18.1016 14.3613C16.1774 14.3773 14.2532 14.3696 12.329 14.3696C11.9216 14.3696 11.9209 14.3696 11.9209 13.9481C11.9209 12.6437 11.9273 11.3399 11.9151 10.0355C11.9126 9.78397 11.9568 9.68708 12.2404 9.68837C15.7892 9.69863 19.3386 9.69671 22.8874 9.69158C23.0793 9.69158 23.1992 9.70569 23.2326 9.9386C23.674 13.0427 23.3205 16.0083 21.6953 18.748C21.1987 19.5859 20.6013 20.3514 19.8532 20.9892Z" fill="#5D7FBE"/>
<path fill-rule="evenodd" clip-rule="evenodd" d="M5.17794 14.2558C3.87803 15.2651 2.57747 16.2743 1.27755 17.2842C0.642354 16.1037 0.276633 14.8358 0.105322 13.5147C-0.190464 11.2261 0.134836 9.02408 1.1056 6.92471C1.15886 6.80922 1.22623 6.70078 1.28718 6.5885C2.53191 7.54708 3.77665 8.50629 5.02203 9.46422C5.08041 9.50914 5.14522 9.54507 5.20745 9.58549C4.68582 11.1395 4.71213 12.6967 5.17794 14.2558Z" fill="#F4C300"/>
</svg>
