<svg width="21" height="24" viewBox="0 0 21 24" fill="none" xmlns="http://www.w3.org/2000/svg">
<path fill-rule="evenodd" clip-rule="evenodd" d="M8.62575 5.63721H15.3808C19.0077 5.63721 20.373 7.47332 20.162 10.1708C19.8133 14.6242 17.121 17.088 13.5499 17.088H11.747C11.257 17.088 10.9274 17.4124 10.7949 18.2912L10.0294 23.4002C9.97886 23.7315 9.80449 23.9233 9.54294 23.9495H5.29879C4.89948 23.9495 4.75824 23.6443 4.86286 22.9835L7.4505 6.60496C7.55164 5.94933 7.91084 5.63721 8.62575 5.63721Z" fill="#009EE3"/>
<path fill-rule="evenodd" clip-rule="evenodd" d="M4.40079 0H11.1628C13.0669 0 15.3268 0.0610292 16.8368 1.39495C17.8464 2.28598 18.3765 3.7036 18.2544 5.23108C17.8394 10.3942 14.7513 13.2869 10.6083 13.2869H7.27439C6.70595 13.2869 6.33105 13.6636 6.17063 14.6819L5.2395 20.6104C5.17847 20.9941 5.01282 21.2207 4.71639 21.2486H0.543739C0.0816605 21.2486 -0.0822481 20.8999 0.0380667 20.1292L3.03722 1.12642C3.15753 0.362687 3.57776 0 4.40079 0Z" fill="#113984"/>
<path fill-rule="evenodd" clip-rule="evenodd" d="M6.26807 14.0802L7.44855 6.605C7.55142 5.94937 7.91063 5.6355 8.62554 5.6355H15.3806C16.4983 5.6355 17.4033 5.80987 18.1112 6.13245C17.4329 10.7288 14.4599 13.2816 10.568 13.2816H7.2393C6.79292 13.2833 6.4651 13.5065 6.26807 14.0802Z" fill="#172C70"/>
</svg>
