<svg width="20" height="12" viewBox="0 0 20 12" fill="none" xmlns="http://www.w3.org/2000/svg">
<path d="M19.4851 0.844962C19.3888 0.817365 19.2962 0.803509 19.2072 0.803509C19.0071 0.803509 18.8405 0.856145 18.707 0.961127L14.2275 4.29521V2.92679C14.2275 2.26875 13.9144 1.70625 13.2882 1.23901C12.662 0.771817 11.9082 0.538208 11.0262 0.538208H3.20114C2.31941 0.538208 1.56538 0.771817 0.939117 1.23901C0.313091 1.70625 0 2.26875 0 2.92679V8.76545C0 9.42343 0.313091 9.9859 0.939156 10.4531C1.56542 10.9203 2.31945 11.1539 3.20118 11.1539H11.0263C11.9082 11.1539 12.6621 10.9203 13.2883 10.4531C13.9145 9.9859 14.2276 9.42346 14.2276 8.76545V7.38863L18.7071 10.731C18.8406 10.8359 19.0071 10.8886 19.2073 10.8886C19.2963 10.8886 19.3889 10.8747 19.4852 10.8472C19.7743 10.7532 19.9187 10.5901 19.9187 10.3579V1.3344C19.9186 1.10207 19.7742 0.938992 19.4851 0.844962Z" fill="#18A0FB"/>
</svg>
